<?xml version="1.0" encoding="UTF-8"?>
<svg xmlns="http://www.w3.org/2000/svg" viewBox="0 0 973.17 257.26">
  <defs>
    <style>
      .b {
        fill: #fff;
      }

      .c {
        isolation: isolate;
      }

      .d {
        mix-blend-mode: soft-light;
      }

      .d, .e {
        fill: #e5e5e5;
      }
    </style>
  </defs>
  <g class="c">
    <g id="a" data-name="Layer 1">
      <g>
        <g>
          <path class="b" d="m359.7,107.31c-9.14,5.41-18.18,10.76-27.28,16.14-1.32.78-3.01.62-4.15-.41-2.06-1.85-5.29-4.65-7.05-5.64-4.15-2.33-8.69-3.3-13.35-3.51-3.52-.16-7.07.09-10.6.27-1.84.09-3.59.65-5.19,1.59-2.14,1.25-2.2,3.61-.16,5.02,1.16.8,2.47,1.42,3.79,1.92,4.76,1.81,9.73,2.91,14.7,4,8.53,1.87,17.07,3.72,25.32,6.62,4.9,1.72,9.74,3.62,14.14,6.46,8.62,5.55,14.19,13.13,15.75,23.41,1.04,6.86.68,13.66-1.06,20.35-2.04,7.82-6.16,14.32-12.64,19.31-3.8,2.93-7.96,5.1-12.46,6.74-8.16,2.96-16.6,4.16-25.21,4.28-4.75.07-9.51-.15-14.26-.41-1.97-.11-3.92-.64-5.88-.99-5.58-1.01-10.87-2.85-16.04-5.16-3.61-1.6-7.02-3.51-10.28-5.69-3.95-2.65-7.62-5.64-10.94-9.09-1.72-1.79-4.68-5.56-6.6-8.05-.98-1.28-.6-3.13.8-3.93,9.57-5.44,19.11-10.74,28.65-16.12,1.02-.58,2.3-.42,3.15.4,2.49,2.43,7.77,7.37,11.19,9.17,8.39,4.41,17.12,4.76,26.09,2.26,1.13-.32,2.25-.97,3.17-1.71,1.23-.99,1.3-2.68.16-3.77-.99-.93-2.16-1.74-3.38-2.33-3.51-1.7-7.3-2.53-11.09-3.31-5.47-1.12-10.97-2.08-16.4-3.34-8.05-1.88-15.87-4.42-22.93-8.87-8.16-5.13-13.7-12.23-16.07-21.65-1.72-6.79-2-13.62-.55-20.5,2.05-9.76,7.59-17.13,15.66-22.75,5.83-4.06,12.27-6.75,19.19-8.32,5.57-1.27,11.22-1.84,16.92-2.15,4.55-.24,9.09-.01,13.58.47,6.49.7,12.83,2.15,18.9,4.71,8.34,3.53,15.28,8.82,20.88,15.86.73.92,1.74,2.33,2.64,3.63,1.17,1.68.66,4.01-1.11,5.05Z"/>
          <path class="e" d="m774.14,107.31c-9.14,5.41-18.18,10.76-27.28,16.14-1.32.78-3.01.62-4.15-.41-2.06-1.85-5.29-4.65-7.05-5.64-4.15-2.33-8.69-3.3-13.35-3.51-3.52-.16-7.07.09-10.6.27-1.84.09-3.59.65-5.19,1.59-2.14,1.25-2.2,3.61-.16,5.02,1.16.8,2.47,1.42,3.79,1.92,4.76,1.81,9.73,2.91,14.7,4,8.53,1.87,17.07,3.72,25.32,6.62,4.9,1.72,9.74,3.62,14.14,6.46,8.62,5.55,14.19,13.13,15.75,23.41,1.04,6.86.68,13.66-1.06,20.35-2.04,7.82-6.16,14.32-12.64,19.31-3.8,2.93-7.96,5.1-12.46,6.74-8.16,2.96-16.6,4.16-25.21,4.28-4.75.07-9.51-.15-14.26-.41-1.97-.11-3.92-.64-5.88-.99-5.58-1.01-10.87-2.85-16.04-5.16-3.61-1.6-7.02-3.51-10.28-5.69-3.95-2.65-7.62-5.64-10.94-9.09-1.72-1.79-4.68-5.56-6.6-8.05-.98-1.28-.6-3.13.8-3.93,9.57-5.44,19.11-10.74,28.65-16.12,1.02-.58,2.3-.42,3.15.4,2.49,2.43,7.77,7.37,11.19,9.17,8.39,4.41,17.12,4.76,26.09,2.26,1.13-.32,2.25-.97,3.17-1.71,1.23-.99,1.3-2.68.16-3.77-.99-.93-2.16-1.74-3.38-2.33-3.51-1.7-7.3-2.53-11.09-3.31-5.47-1.12-10.97-2.08-16.4-3.34-8.05-1.88-15.87-4.42-22.93-8.87-8.16-5.13-13.7-12.23-16.07-21.65-1.72-6.79-2-13.62-.55-20.5,2.05-9.76,7.59-17.13,15.66-22.75,5.83-4.06,12.27-6.75,19.19-8.32,5.57-1.27,11.22-1.84,16.92-2.15,4.55-.24,9.09-.01,13.58.47,6.49.7,12.83,2.15,18.9,4.71,8.34,3.53,15.28,8.82,20.88,15.86.73.92,1.74,2.33,2.64,3.63,1.17,1.68.66,4.01-1.11,5.05Z"/>
          <path class="e" d="m900.49,215.88s17.83,0,26.07-.11c4.32-.06,8.41-1.14,12.19-3.32,3.35-1.93,5.94-4.56,7.86-7.88.16-.29.3-.59.43-.89.04-.09,0-.21,0-.51-.32-.03-.66-.13-.97-.07-.24.05-.44.31-.65.49-3.28,2.99-7.2,4.68-11.5,5.56-7.54,1.54-15.09,1.39-22.54-.44-9.84-2.41-17.23-8.07-21.69-17.25-2.33-4.79-3.29-9.93-3.44-15.23-.06-2.04-.07-4.09-.07-6.13,0-16.51,0-33.02,0-49.53,0-.93,0-1.87,0-2.75,1.24-.41,33.52-.56,36.15-.19.04.39.11.81.11,1.23,0,18.28-.03,36.55-.03,54.83,0,1.21.14,2.43.32,3.62.39,2.55,2.27,4.38,4.83,4.76,2.16.32,4.28.3,6.31-.68,1.64-.8,2.5-2.15,2.75-3.87.18-1.2.26-2.42.26-3.63.02-18.06.01-36.11.01-54.17v-2.17h36.16c.03.73.08,1.36.08,2,0,19.21,0,38.43,0,57.64,0,7.4.04,14.8.02,22.2-.03,11.34-3.06,21.79-9.51,31.18-2.97,4.32-6.51,8.12-10.8,11.13-5.73,4.02-12.15,6.4-19.18,6.57-8.52.2-25.99.02-26.37-.04-2.25-10.7-4.51-21.42-6.81-32.36Z"/>
          <path class="e" d="m817.08,117.62c-4.78,9.78-8.01,19.49-9.35,29.77.11.04.23.08.34.12.15-.38.36-.74.43-1.14.56-3.33,1.47-6.57,2.65-9.72,2.39-6.36,5.9-11.96,11.31-16.23,4.3-3.39,9.22-5.21,14.64-5.59,6.23-.43,12.36.17,18.32,2.21,7.29,2.5,12.8,7.07,16.43,13.86,2.5,4.67,4.04,9.68,4.66,14.92.42,3.55.71,7.14.76,10.72.09,6.4.14,12.81-.12,19.21-.33,8.27-2.24,16.15-6.94,23.17-4.08,6.09-9.61,10.26-16.56,12.62-5.04,1.71-10.22,2.35-15.51,2.33-4.34-.02-8.56-.79-12.85-2.49-.17,2.52,0,4.92-.03,7.32-.03,2.48,0,4.97,0,7.45,0,2.43,0,4.86,0,7.29,0,2.48,0,4.97,0,7.45,0,2.42,0,4.83,0,7.36h-36.29V117.56c4.63-.16,9.25-.08,13.86-.06,4.61.02,9.24-.18,14.24.12Zm8.28,46.42h-.09c0,2.1-.02,4.19,0,6.29.03,2.32.02,4.64.18,6.95.14,2.03,1.21,3.5,3.16,4.28,2.19.87,4.45.98,6.66.31,2.32-.7,3.95-2.18,4.15-4.8.08-.99.23-1.98.24-2.96.02-6.35.03-12.69,0-19.04,0-1.32-.14-2.64-.32-3.95-.22-1.61-1.03-2.86-2.47-3.72-2.02-1.21-4.17-1.13-6.41-.94-2.79.24-5.18,2.51-5.12,5.67.07,3.97.02,7.95.02,11.92Z"/>
          <path class="b" d="m568.91,117.56h27.96c-1.39,3.23-2.9,6.35-4.1,9.59-1.22,3.31-2.11,6.73-3.16,10.1-1.04,3.33-1.56,6.74-1.85,10.21.73-.76.72-1.76.92-2.69,1.68-7.77,4.59-14.95,9.99-20.96,4.9-5.45,11.04-8.41,18.29-8.94,6.33-.46,12.6.08,18.64,2.24,7.23,2.59,12.71,7.2,16.27,14.04,3.33,6.4,4.74,13.28,5.14,20.39.24,4.29.18,8.6.2,12.91.01,3.64.05,7.29-.13,10.92-.32,6.55-1.53,12.92-4.34,18.91-2.62,5.58-6.41,10.19-11.58,13.57-4.21,2.75-8.87,4.48-13.84,5.29-5.38.88-10.79,1.13-16.17.04-1.67-.34-3.29-.94-4.93-1.42-.3-.09-.61-.17-1.17-.32-.15,12.33-.04,24.5-.07,36.65-1.21.33-33.68.44-36.09.12V117.56Zm50.6,46.92c0-3.09.02-6.18-.01-9.27-.01-1.32-.11-2.64-.24-3.96-.24-2.35-1.63-3.92-3.8-4.54-2.42-.7-4.9-.64-7.28.49-1.66.79-2.53,2.1-2.84,3.81-.19,1.08-.29,2.19-.3,3.29-.03,6.68-.03,13.35,0,20.03,0,1.04.13,2.1.31,3.12.46,2.58,2.15,4.26,4.76,4.58,1.35.17,2.75.12,4.11.02,2.6-.19,4.53-1.96,5-4.52.18-.97.27-1.97.28-2.96.03-3.37.01-6.73.01-10.1Z"/>
          <path class="b" d="m399.18,147.69c.93-.39.9-1.05,1.05-1.6.85-2.97,1.59-5.97,2.58-8.89,1.6-4.68,3.89-9.02,6.99-12.89,4.79-5.98,11.01-9.24,18.72-9.55,4.45-.18,8.84.2,13.16,1.32,8.93,2.33,14.97,7.76,17.82,16.59,1.68,5.2,2.28,10.57,2.31,15.99.07,12.86.03,25.73.04,38.59,0,7.45,0,14.91,0,22.36,0,.48-.04.97-.07,1.54h-36.11c-.02-.61-.05-1.25-.05-1.88,0-18.22,0-36.44-.01-54.66,0-1.15-.1-2.32-.29-3.46-.45-2.66-2.19-4.39-4.87-4.64-1.58-.15-3.21-.13-4.77.11-2.4.37-3.99,2.21-4.28,4.64-.13,1.15-.21,2.31-.21,3.47-.01,18.22,0,36.44,0,54.66,0,.54,0,1.09,0,1.75h-36.16c0-44.33,0-88.63,0-132.93,0-1.76,1.41-3.2,3.17-3.23,3.08-.05,8-.12,13.01-.11,11.38.02,19.93,10.38,17.8,21.56-3.26,17.03-6.53,34.1-9.81,51.27Z"/>
          <path class="b" d="m471.15,164.44c0-2.65.01-5.3,0-7.95-.04-5.67.72-11.25,2.55-16.61,3.49-10.23,10.18-17.48,20.36-21.5,7.03-2.78,14.33-3.51,21.78-3.44,4.21.04,8.39.33,12.53,1.17,6.26,1.26,12.07,3.49,17.09,7.56,3.06,2.47,5.5,5.41,7.45,8.79,3.14,5.46,4.68,11.41,5.24,17.62.68,7.43.43,14.88.37,22.33-.03,4.32-.39,8.61-1.36,12.81-1.84,7.98-5.31,15.08-11.97,20.25-4.9,3.8-10.5,6.09-16.54,7.27-8.27,1.62-16.59,1.71-24.91.43-4.89-.75-9.56-2.21-13.93-4.6-6.79-3.72-11.69-9.11-14.78-16.2-2.52-5.75-3.6-11.79-3.81-18.01-.11-3.31-.02-6.62-.02-9.93-.01,0-.03,0-.04,0Zm35.49.12c0,3.25-.01,6.5,0,9.76,0,.99.05,1.99.17,2.97.29,2.4,1.72,3.97,3.97,4.6,2.92.82,5.89.89,8.76-.39,1.82-.81,2.88-2.19,3.12-4.15.14-1.09.19-2.2.19-3.3.02-6.17.02-12.35,0-18.52,0-1.21-.11-2.42-.18-3.63-.13-2.36-1.45-3.85-3.56-4.72-2.68-1.1-5.44-.93-8.12-.14-2.71.8-4.21,2.72-4.3,5.62-.02.55-.04,1.1-.04,1.65,0,3.42,0,6.84,0,10.25Z"/>
        </g>
        <g>
          <path class="d" d="m133.96,140.03h0c-.13.1-.25.18-.38.27-.09.06-.18.13-.26.19-12.18,8.81-24.95-6.29-24.95-6.29,0,0,0,.01,0,.01-8.23-10.28-21.95-21.32-43.72-23.72,0,0,5.1,38.75,24.71,49.2,7.66,4.09,14.17,3.59,19.13,1.66.59-.14,1.49-.53,2.89-1.36.22-.12.44-.25.66-.38,4.6-2.62,7.05-2.88,7.21-2.9,6.5-.63,12,2.52,12,2.52h0c3.6,2.21,8.75,3.88,15.95,3.34,22.09-1.66,29.18-34.69,29.18-34.69-21.52.79-34.65,6.55-42.41,12.13Zm-38.81,14.87c-15.77-7.09-20.5-32.23-20.5-32.23,24.84,4.51,41,28.04,41,28.04,0,0-4.73,11.28-20.5,4.19Zm49.15,2.61c-12.88,1.31-16.82-6.57-16.82-6.57,0,0,15.51-13.67,39.43-15.51,0,0-9.72,20.76-22.6,22.08Z"/>
          <path class="e" d="m126.45,133.21c-19.85,2.22-94.74-27.15-126.45-60.77,0,0,46.79,21.55,66.11,11.05,9.32-5.07,26.59-68.66,26.59-68.66,0,0,5.4-16.62,17.15-14.68,6.31,1.04,16.61,22.73,22.23,27.94,5.63,5.21,12.27-2.37,16.36-3.31,4.09-.95,16.46,31.37,26.69,58.36,0,0,21.23,12.78,74.56-8.64,0,0-71.59,52.94-123.25,58.71Z"/>
          <path class="d" d="m126.45,133.21c-19.85,2.22-94.74-27.15-126.45-60.77,0,0,46.79,21.55,66.11,11.05,9.32-5.07,26.59-68.66,26.59-68.66,0,0,5.4-16.62,17.15-14.68,6.31,1.04,16.61,22.73,22.23,27.94,5.63,5.21,12.27-2.37,16.36-3.31,4.09-.95,16.46,31.37,26.69,58.36,0,0,21.23,12.78,74.56-8.64,0,0-71.59,52.94-123.25,58.71Z"/>
          <path class="e" d="m70.31,146.91s14.98,15.35,24.84,21.23c9.86,5.89,17.73-5.34,26.02-5.44,8.29-.1,20.51,9.75,26.03,10.54,5.52.79,22.87-18.43,27.2-27.94,0,0-17.13,56.6-52.04,80.67,0,0-24.44-6.51-52.04-79.06Z"/>
          <path class="d" d="m70.31,146.91s14.98,15.35,24.84,21.23c9.86,5.89,17.73-5.34,26.02-5.44,8.29-.1,20.51,9.75,26.03,10.54,5.52.79,22.87-18.43,27.2-27.94,0,0-17.13,56.6-52.04,80.67,0,0-24.44-6.51-52.04-79.06Z"/>
          <path class="e" d="m54.38,136.41s-29.02,8.49-49.12,40.82l42.58,32.57s-15.77,9.33-20.9,19.52l55.59,27.94-42.32-30.06s5.68-10.14,26.01-19.32l-43.75-32.96s9.27-18.26,37.61-28.39l-2.79-11.09c-2.46.77-2.92.97-2.92.97Z"/>
          <path class="d" d="m54.38,136.41s-29.02,8.49-49.12,40.82l42.58,32.57s-15.77,9.33-20.9,19.52l55.59,27.94-42.32-30.06s5.68-10.14,26.01-19.32l-43.75-32.96s9.27-18.26,37.61-28.39l-2.79-11.09c-2.46.77-2.92.97-2.92.97Z"/>
          <path class="e" d="m185.62,136.41s29.02,8.49,49.12,40.82l-42.58,32.57s15.77,9.33,20.9,19.52l-55.59,27.94,42.32-30.06s-5.68-10.14-26.01-19.32l43.75-32.96s-9.27-18.26-37.61-28.39l2.79-11.09c2.46.77,2.92.97,2.92.97Z"/>
          <path class="d" d="m185.62,136.41s29.02,8.49,49.12,40.82l-42.58,32.57s15.77,9.33,20.9,19.52l-55.59,27.94,42.32-30.06s-5.68-10.14-26.01-19.32l43.75-32.96s-9.27-18.26-37.61-28.39l2.79-11.09c2.46.77,2.92.97,2.92.97Z"/>
        </g>
      </g>
    </g>
  </g>
</svg>